<svg width="644" height="32" viewBox="0 0 644 32" fill="none" xmlns="http://www.w3.org/2000/svg">
  <!-- Main Window Bar Background: #25334D. Extended to V32 to avoid gap. -->
  <path d="M0 12C0 5.37258 5.37258 0 12 0H632C638.627 0 644 5.37258 644 12V32H0V12Z" fill="#25334D"/>
  
  <!-- Traffic Light Buttons (Left) -->
  <g transform="translate(15, 8)">
    <circle cx="6" cy="8" r="5" fill="#ED6A5E"/> <!-- Red -->
    <circle cx="22" cy="8" r="5" fill="#F4BD50"/> <!-- Yellow -->
    <circle cx="38" cy="8" r="5" fill="#61C454"/> <!-- Green -->
  </g>

  <!-- URL Bar (Center): #3C5175 -->
  <!-- Centered horizontally in 644 width. 644/2 = 322 center. Width ~300? -->
  <rect x="172" y="6" width="300" height="20" rx="4" fill="#3C5175"/>
  
  <!-- Text: Satyam Singh | Portfolio -->
  <text x="322" y="20.5" fill="white" font-family="-apple-system, BlinkMacSystemFont, 'Segoe UI', Roboto, Helvetica, Arial, sans-serif" font-size="11" text-anchor="middle" font-weight="500" letter-spacing="0.5">Satyam Singh | Portfolio</text>
  
  <!-- Lock Icon (Left of text) - Optional polish -->
  <path d="M245 10C245 9 246 8 247 8H250C251 8 252 9 252 10V11H253V15H244V11H245V10ZM246 11H251V10C251 9.5 250.5 9 250 9H247C246.5 9 246 9.5 246 10V11Z" fill="white" opacity="0.5" transform="translate(-85, 2.5)"/> 

</svg>
