<svg width="800" height="600" viewBox="0 0 800 600" fill="none" xmlns="http://www.w3.org/2000/svg">
  <!-- Background -->
  <rect width="800" height="600" fill="#0F172A"/>

  <!-- Glass Card -->
  <rect x="200" y="150" width="400" height="300" rx="16" fill="#1E293B" stroke="#334155" stroke-width="2"/>
  
  <!-- Dashed Upload Zone -->
  <rect x="240" y="200" width="320" height="140" rx="8" fill="#334155" fill-opacity="0.3" stroke="#94A3B8" stroke-width="2" stroke-dasharray="8 8"/>
  
  <!-- Cloud Icon -->
  <path d="M400 250C388.954 250 380 258.954 380 270H370C358.954 270 350 278.954 350 290C350 301.046 358.954 310 370 310H430C441.046 310 450 301.046 450 290C450 279.43 441.79 270.815 431.391 270.081C429.99 258.656 420.288 250 408.5 250C405.5 250 402.66 250.6 400 251.71V250Z" fill="#38BDF8"/>
  <path d="M400 255V285M400 255L390 265M400 255L410 265" stroke="white" stroke-width="4" stroke-linecap="round" stroke-linejoin="round"/>

  <!-- Text -->
  <text x="400" y="380" fill="#94A3B8" font-family="sans-serif" font-size="14" text-anchor="middle">Drag & Drop images here</text>

  <!-- Convert Button -->
  <rect x="240" y="400" width="320" height="40" rx="6" fill="#0D9488"/>
  <text x="400" y="425" fill="white" font-family="sans-serif" font-size="16" font-weight="bold" text-anchor="middle">CONVERT TO PDF</text>

  <!-- Progress Indicators -->
  <circle cx="260" cy="180" r="4" fill="#EF4444"/>
  <circle cx="275" cy="180" r="4" fill="#EAB308"/>
  <circle cx="290" cy="180" r="4" fill="#22C55E"/>

</svg>
