<svg width="800" height="600" viewBox="0 0 800 600" fill="none" xmlns="http://www.w3.org/2000/svg">
  <defs>
    <filter id="shadow" x="0" y="0" width="800" height="600" filterUnits="userSpaceOnUse" color-interpolation-filters="sRGB">
      <feFlood flood-opacity="0" result="BackgroundImageFix"/>
      <feColorMatrix in="SourceAlpha" type="matrix" values="0 0 0 0 0 0 0 0 0 0 0 0 0 0 0 0 0 0 127 0" result="hardAlpha"/>
      <feOffset dy="4"/>
      <feGaussianBlur stdDeviation="2"/>
      <feComposite in2="hardAlpha" operator="out"/>
      <feColorMatrix type="matrix" values="0 0 0 0 0 0 0 0 0 0 0 0 0 0 0 0 0 0 0.1 0"/>
      <feBlend mode="normal" in2="BackgroundImageFix" result="effect1_dropShadow"/>
      <feBlend mode="normal" in="SourceGraphic" in2="effect1_dropShadow" result="shape"/>
    </filter>
  </defs>

  <!-- Background -->
  <rect width="800" height="600" fill="#F1F5F9"/>

  <!-- Left Sidebar -->
  <rect width="200" height="600" fill="#1E293B"/>
  <rect x="20" y="40" width="160" height="30" rx="4" fill="#334155"/>
  <rect x="20" y="100" width="120" height="12" rx="2" fill="#475569"/>
  <rect x="20" y="130" width="140" height="12" rx="2" fill="#475569"/>
  <rect x="20" y="160" width="100" height="12" rx="2" fill="#475569"/>

  <!-- Main Content Area -->
  <rect x="240" y="40" width="520" height="520" rx="8" fill="white" filter="url(#shadow)"/>
  
  <!-- Resume Header -->
  <rect x="240" y="40" width="520" height="120" rx="8" fill="#E0F2FE"/>
  <circle cx="300" cy="100" r="40" fill="#0284C7"/>
  <rect x="360" y="80" width="200" height="20" rx="4" fill="#0369A1"/>
  <rect x="360" y="110" width="150" height="12" rx="4" fill="#7DD3FC"/>

  <!-- Resume Body Columns -->
  <rect x="280" y="200" width="180" height="12" rx="2" fill="#E2E8F0"/>
  <rect x="280" y="230" width="440" height="8" rx="2" fill="#F1F5F9"/>
  <rect x="280" y="250" width="400" height="8" rx="2" fill="#F1F5F9"/>
  <rect x="280" y="270" width="420" height="8" rx="2" fill="#F1F5F9"/>

  <rect x="280" y="310" width="160" height="12" rx="2" fill="#E2E8F0"/>
  <rect x="280" y="340" width="440" height="8" rx="2" fill="#F1F5F9"/>
  <rect x="280" y="360" width="410" height="8" rx="2" fill="#F1F5F9"/>
  <rect x="280" y="380" width="430" height="8" rx="2" fill="#F1F5F9"/>

  <!-- Floating 'Edit' Button -->
  <circle cx="720" cy="520" r="25" fill="#2563EB"/>
  <path d="M710 520L720 530L735 510" stroke="white" stroke-width="4" stroke-linecap="round" stroke-linejoin="round"/>

</svg>
