<svg xmlns="http://www.w3.org/2000/svg" viewBox="0 0 128 128" width="128" height="128"><path fill="#339933" d="M64,6.4L10,36.9v60.2l54,30.5l54-30.5V36.9L64,6.4z M103,90.2L64,112.3L25,90.2V44l39-22.1l39,22.1V90.2z"/><path fill="#339933" d="M85 78.6c-1.7-2.9-4.9-3.9-8.8-3.9c-3.4 0-7.4 1.5-7.4 5.9c0 4.4 3.9 4.9 8.8 6.4c6.9 1.5 13.2 3.4 13.2 12.3c0 8.8-8.3 13.2-16.7 13.2c-5.4 0-13.2-1.5-17.7-6.9l4.9-5.9c2 2.9 6.4 4.9 10.8 4.9c4.9 0 7.8-2 7.8-5.9c0-3.9-4.4-4.9-8.3-5.9c-7.4-2-13.7-4.4-13.7-12.8c0-8.3 7.4-12.8 15.7-12.8c5.4 0 11.3 2 15.7 5.9L85 78.6z"/></svg>
