<svg xmlns="http://www.w3.org/2000/svg" viewBox="0 0 128 128" width="128" height="128"><circle cx="64" cy="64" r="64" fill="#FF6C37"/><path fill="#FFF" d="M102,94.5H26c-1.4,0-2.5-1.1-2.5-2.5V86c0-1.4,1.1-2.5,2.5-2.5h76c1.4,0,2.5,1.1,2.5,2.5v6 C104.5,93.4,103.4,94.5,102,94.5z M64,18c21,0,38.1,13.6,44,32.5H20C25.9,31.6,43,18,64,18z M99.7,77.5H28.3C27,77.5,26,76.5,26,75.2v-7.8c0-1.2,1-1.9,2.2-2.1 C38.6,63.1,51.1,62,64,62c12.9,0,25.4,1.1,35.8,3.3c1.2,0.2,2.2,0.9,2.2,2.1v7.8C102,76.5,101,77.5,99.7,77.5z"/></svg>
