<svg xmlns="http://www.w3.org/2000/svg" viewBox="0 0 128 128" width="128" height="128"><path fill="url(#python_grad1)" d="M64,22c15,0,16.5,7,16.5,7l0.1,7.2H61.8V49h28.1v4c0,11.3-9.5,18.5-18.5,18.5c-11.3,0-19.1-9.3-19.1-18.5V40 C52.3,27,58,22,64,22z M54,34c-2.2,0-4-1.8-4-4s1.8-4,4-4s4,1.8,4,4S56.2,34,54,34z"/><path fill="url(#python_grad2)" d="M64,106c-15,0-16.5-7-16.5-7l-0.1-7.2h18.8V79H38.1v-4c0-11.3,9.5-18.5,18.5-18.5c11.3,0,19.1,9.3,19.1,18.5v13 c0,13-5.7,18-11.7,18H64z M74,94c2.2,0,4,1.8,4,4s-1.8,4-4,4s-4-1.8-4-4S71.8,94,74,94z"/><defs><linearGradient id="python_grad1" x1="0%" y1="0%" x2="100%" y2="100%"><stop offset="0%" style="stop-color:#3776AB;stop-opacity:1" /><stop offset="100%" style="stop-color:#306998;stop-opacity:1" /></linearGradient><linearGradient id="python_grad2" x1="0%" y1="0%" x2="100%" y2="100%"><stop offset="0%" style="stop-color:#FFD43B;stop-opacity:1" /><stop offset="100%" style="stop-color:#FFE873;stop-opacity:1" /></linearGradient></defs></svg>
